<?xml version="1.0" standalone="no"?>
<svg xmlns="http://www.w3.org/2000/svg" xmlns:xlink="http://www.w3.org/1999/xlink" width="422pt" height="116pt" viewBox="0.00 0.00 422.00 116.00">
<g id="graph0" class="graph" transform="translate(4,112) scale(1)" data-name="">
<polygon fill="white" stroke="none" points="-4,4 -4,-112 418,-112 418,4 -4,4" style=""/>
<!-- MM1 -->
<g id="node1" class="node" pointer-events="visible" data-name="MM1">

<polygon fill="none" stroke="black" points="54,-108 0,-108 0,-72 54,-72 54,-108" style=""/>
<text text-anchor="middle" x="27" y="-85.8" font-family="Times,serif" font-size="14.00" style="">MM1</text>
</g>
<!-- MM3 -->
<g id="node2" class="node" pointer-events="visible" data-name="MM3">

<polygon fill="none" stroke="black" points="162,-36 108,-36 108,0 162,0 162,-36" style=""/>
<text text-anchor="middle" x="135" y="-13.8" font-family="Times,serif" font-size="14.00" style="">MM3</text>
</g>
<!-- MM1&#45;&gt;MM3 -->
<g id="edge1" class="edge" data-name="MM1-&gt;MM3">

<path fill="none" stroke="black" d="M53.97,-71.52C67.61,-62.68 84.34,-51.84 99.05,-42.3" style=""/>
<polygon fill="black" stroke="black" points="100.61,-45.46 107.1,-37.08 96.8,-39.59 100.61,-45.46" style=""/>
</g>
<!-- MM2 -->
<g id="node3" class="node" pointer-events="visible" data-name="MM2">

<polygon fill="none" stroke="black" points="126,-108 72,-108 72,-72 126,-72 126,-108" style=""/>
<text text-anchor="middle" x="99" y="-85.8" font-family="Times,serif" font-size="14.00" style="">MM2</text>
</g>
<!-- MM2&#45;&gt;MM3 -->
<g id="edge2" class="edge" data-name="MM2-&gt;MM3">

<path fill="none" stroke="black" d="M107.9,-71.7C111.87,-63.98 116.63,-54.71 121.06,-46.11" style=""/>
<polygon fill="black" stroke="black" points="124.05,-47.94 125.51,-37.45 117.83,-44.74 124.05,-47.94" style=""/>
</g>
<!-- IG1 -->
<g id="node4" class="node" pointer-events="visible" data-name="IG1">

<polygon fill="none" stroke="black" points="270,-108 216,-108 216,-72 270,-72 270,-108" style=""/>
<text text-anchor="middle" x="243" y="-85.8" font-family="Times,serif" font-size="14.00" style="">IG1</text>
</g>
<!-- IG1&#45;&gt;MM3 -->
<g id="edge3" class="edge" data-name="IG1-&gt;MM3">

<path fill="none" stroke="black" d="M216.03,-71.52C202.39,-62.68 185.66,-51.84 170.95,-42.3" style=""/>
<polygon fill="black" stroke="black" points="173.2,-39.59 162.9,-37.08 169.39,-45.46 173.2,-39.59" style=""/>
</g>
<!-- IG2 -->
<g id="node5" class="node" pointer-events="visible" data-name="IG2">

<polygon fill="none" stroke="black" points="270,-36 216,-36 216,0 270,0 270,-36" style=""/>
<text text-anchor="middle" x="243" y="-13.8" font-family="Times,serif" font-size="14.00" style="">IG2</text>
</g>
<!-- IG1&#45;&gt;IG2 -->
<g id="edge4" class="edge" data-name="IG1-&gt;IG2">

<path fill="none" stroke="black" d="M243,-71.7C243,-64.41 243,-55.73 243,-47.54" style=""/>
<polygon fill="black" stroke="black" points="246.5,-47.62 243,-37.62 239.5,-47.62 246.5,-47.62" style=""/>
</g>
<!-- PM2 -->
<g id="node6" class="node" pointer-events="visible" data-name="PM2">

<polygon fill="none" stroke="black" points="342,-108 288,-108 288,-72 342,-72 342,-108" style=""/>
<text text-anchor="middle" x="315" y="-85.8" font-family="Times,serif" font-size="14.00" style="">PM2</text>
</g>
<!-- PM1 -->
<g id="node7" class="node" pointer-events="visible" data-name="PM1">

<polygon fill="none" stroke="black" points="378,-36 324,-36 324,0 378,0 378,-36" style=""/>
<text text-anchor="middle" x="351" y="-13.8" font-family="Times,serif" font-size="14.00" style="">PM1</text>
</g>
<!-- PM2&#45;&gt;PM1 -->
<g id="edge5" class="edge" data-name="PM2-&gt;PM1">

<path fill="none" stroke="black" d="M323.9,-71.7C327.87,-63.98 332.63,-54.71 337.06,-46.11" style=""/>
<polygon fill="black" stroke="black" points="340.05,-47.94 341.51,-37.45 333.83,-44.74 340.05,-47.94" style=""/>
</g>
<!-- PM3 -->
<g id="node8" class="node" pointer-events="visible" data-name="PM3">

<polygon fill="none" stroke="black" points="414,-108 360,-108 360,-72 414,-72 414,-108" style=""/>
<text text-anchor="middle" x="387" y="-85.8" font-family="Times,serif" font-size="14.00" style="">PM3</text>
</g>
<!-- PM3&#45;&gt;PM1 -->
<g id="edge6" class="edge" data-name="PM3-&gt;PM1">

<path fill="none" stroke="black" d="M378.1,-71.7C374.13,-63.98 369.37,-54.71 364.94,-46.11" style=""/>
<polygon fill="black" stroke="black" points="368.17,-44.74 360.49,-37.45 361.95,-47.94 368.17,-44.74" style=""/>
</g>
<!-- TCP1 -->
<g id="node9" class="node" pointer-events="visible" data-name="TCP1">

<polygon fill="none" stroke="black" points="198,-108 144,-108 144,-72 198,-72 198,-108" style=""/>
<text text-anchor="middle" x="171" y="-85.8" font-family="Times,serif" font-size="14.00" style="">TCP1</text>
</g>
<!-- TCP1&#45;&gt;MM3 -->
<g id="edge7" class="edge" data-name="TCP1-&gt;MM3">

<path fill="none" stroke="black" d="M162.1,-71.7C158.13,-63.98 153.37,-54.71 148.94,-46.11" style=""/>
<polygon fill="black" stroke="black" points="152.17,-44.74 144.49,-37.45 145.95,-47.94 152.17,-44.74" style=""/>
</g>
</g>
</svg>